<svg xmlns="http://www.w3.org/2000/svg" width="25" height="23" fill="none" viewBox="0 0 25 23">
    <path fill="#fff" d="M25 8V4.5C25 2.015 22.985 0 20.5 0h-5c-.276 0-.5.224-.5.5 0 .722-.313 1.408-.857 1.883-.543.474-1.265.691-1.98.595-1.269-.213-2.19-1.324-2.163-2.61V0H4.5C2.015 0 0 2.015 0 4.5v6c0 .276.224.5.5.5H5v11.5c0 .276.224.5.5.5h14c.276 0 .5-.224.5-.5V11h4.5c.276 0 .5-.224.5-.5V8zM5 10H1V9h4v1zm14 12H6v-1h13v1zm5-12h-4V9h4v1zm0-2h-5v11.999L6 20V8H1V4.5C1.002 2.568 2.568 1.002 4.5 1h4.55c.245 1.721 1.719 3 3.457 3 1.739 0 3.212-1.279 3.457-3H20.5c1.932.002 3.498 1.568 3.5 3.5V8z" opacity=".5"/>
</svg>
