<svg xmlns="http://www.w3.org/2000/svg" width="26" height="24" fill="none" viewBox="0 0 26 24">
    <path fill="#fff" d="M20.512.259l.189.005c1.548.063 2.356.917 2.356 2.759 0 .785-.233 1.534-.604 2.134 1.398.365 2.989 1.433 2.989 2.93 0 .827-2.4 1.356-4.658 1.467-.21.59-.503 1.122-.861 1.574 2.209.65 5.537 3.013 5.537 5.445 0 .956-3.066 1.73-5.756 1.88.947.814 1.487 1.81 1.487 2.998 0 1.278-4.167 1.808-8.876 1.808-3.48 0-7.462-.766-7.462-1.808 0-1.205.377-2.211 1.117-3.014-2.626-.18-5.51-.936-5.51-1.864 0-2.289 2.948-4.517 5.137-5.313-.415-.486-.75-1.076-.983-1.74-2.08-.164-4.11-.673-4.11-1.433 0-1.34 1.274-2.335 2.544-2.793-.425-.618-.696-1.423-.696-2.271 0-1.842.808-2.696 2.356-2.76l.19-.004c1.719-.013 2.79.788 2.725 2.782l.198-.01.225-.005c2.382-.014 4.148 1.32 4.148 3.817v.93c.282-.027.574-.034.875-.022l.147.008v-.916c0-2.497 1.766-3.831 4.148-3.817l.225.005.197.01C17.72 1.047 18.791.246 20.511.26zm-9.684 17.08l.126-.022c-1.22.189-2.21.486-2.975.893-.27.144-.2.104-.437.262-1.007.673-1.522 1.594-1.576 2.77l-.001.055c.069.037.167.08.291.126.366.134.906.273 1.551.397 1.385.266 3.068.434 4.508.434 1.665 0 3.695-.116 5.252-.314.86-.109 1.556-.24 2.03-.385.182-.056.324-.112.422-.163l.059-.034-.003-.106c-.085-1.183-.93-2.138-2.35-2.879l-.241-.121c-.964-.467-2.226-.825-2.8-.909-.63.52-1.337.825-2.044.825-.604 0-1.23-.313-1.812-.83zm8.207-5.355c-.601.444-1.303.71-2.061.751l-.095.004c-.087 1.432-.618 2.761-1.374 3.746.749.18 1.707.496 2.5.88l.183.09.108.007c1.098.041 2.604-.098 3.945-.357.698-.135 1.297-.293 1.71-.451.143-.056.26-.11.342-.157l.053-.035-.002-.084c-.09-1.1-.933-2.124-2.327-3.017l-.252-.156c-.967-.581-2.259-1.101-2.73-1.221zm-12.505.113l-.109.037c-.607.222-1.53.629-2.266 1.071l-.252.156c-1.394.893-2.237 1.916-2.327 3.017l-.002.084.053.035c.083.047.199.101.343.157.412.158 1.01.316 1.71.451 1.176.228 2.48.362 3.524.364.76-.443 1.703-.78 2.822-1.01-.775-1.023-1.375-2.384-1.57-3.722l-.02-.002c-.692-.037-1.338-.263-1.906-.638zm6.49-3.342c-2.087-.085-3.524.94-3.524 3.077 0 2.427 1.911 5.33 3.143 5.33 1.413 0 3.144-2.23 3.144-4.84 0-2.598-.841-3.489-2.763-3.567zm1.31-2.118l-.005.206v1.091c1.572.433 2.424 1.626 2.55 3.797l-.106.005c1.769 0 3.286-1.877 3.286-4.44 0-2.383-.762-3.19-2.516-3.26-1.839-.076-3.12.788-3.21 2.601zM7.87 4.035c-1.753.071-2.515.878-2.515 3.26 0 .445.046.868.13 1.265l.05.214c.233.915.677 1.673 1.245 2.194l.25.207c.41.307.873.499 1.359.548.038-1.957 1.103-3.226 2.697-3.73v-1.15l-.006-.206c-.089-1.813-1.37-2.677-3.21-2.602zm13.803 1.999c-.177.137-.364.246-.558.324.032.29.049.603.049.937 0 .425-.038.836-.108 1.23.686-.055 1.459-.162 2.118-.297.365-.074.678-.153.912-.23l.169-.061.06-.027-.02-.104c-.253-.937-1.711-1.671-2.622-1.772zm-17.824.084l-.135.037c-.857.263-1.858.89-2.064 1.651l-.02.104.027.012.203.075c.234.078.547.157.912.231.49.1 1.041.185 1.574.244-.066-.378-.1-.771-.1-1.177 0-.334.017-.647.049-.939-.154-.059-.303-.14-.446-.238zm.909-4.85c-.928.037-1.298.428-1.298 1.755 0 .82.327 1.559.725 2.008l.29.268.027.02c.336-1.09 1.004-1.758 2-2.074.14-1.614-.451-2.03-1.744-1.977zm14.136 1.82l.013.156c.997.317 1.665.985 2.001 2.073.523-.36 1.04-1.263 1.04-2.294 0-1.327-.369-1.718-1.297-1.755-1.25-.051-1.845.336-1.757 1.82z" opacity=".5"/>
</svg>
