<svg xmlns="http://www.w3.org/2000/svg" width="25" height="24" fill="none" viewBox="0 0 25 24">
    <path fill="#fff" d="M24 2h-5V.5c0-.276-.224-.5-.5-.5s-.5.224-.5.5V2H7V.5c0-.276-.224-.5-.5-.5S6 .224 6 .5V2H1c-.552 0-1 .448-1 1v20c0 .552.448 1 1 1h23c.552 0 1-.448 1-1V3c0-.552-.448-1-1-1zm0 21H1V8h23v15zm0-16H1V3h23v4zM9.97 16.782l-.435 2.63c-.029.14.004.285.091.398.087.113.219.182.361.19.073 0 .144-.019.207-.054l2.306-1.257 2.306 1.257c.063.035.134.054.207.054.142-.008.274-.077.361-.19.087-.113.12-.259.091-.398l-.435-2.63 1.823-1.843c.132-.132.181-.325.13-.504-.053-.179-.198-.315-.38-.356l-2.539-.383-1.155-2.426c-.07-.164-.23-.27-.409-.27-.178 0-.339.106-.409.27l-1.155 2.427-2.538.383c-.182.04-.328.177-.38.356-.052.18-.002.372.13.504l1.822 1.842zm1.64-2.175l.89-1.869.89 1.869 2.076.313-1.506 1.522.346 2.093-1.806-.985-1.807.985.347-2.093-1.506-1.522 2.076-.313z" opacity=".5"/>
</svg>
