<svg xmlns="http://www.w3.org/2000/svg" width="50" height="23" fill="none" viewBox="0 0 50 23">
    <rect width="50" height="23" fill="#E4002B" rx="2"/>
    <rect width="5" height="5" x="7" y="7" fill="#fff" rx="2.5"/>
    <path fill="#fff" d="M17.791 7.932V15h4.392v-1.416h-2.76V7.932h-1.632zm5.649 0V15h1.632V7.932H23.44zm4.416 0h-1.74L28.444 15h1.968l2.328-7.068h-1.704l-1.152 3.816c-.3.972-.384 1.872-.384 1.872h-.048s-.096-.888-.408-1.884l-1.188-3.804zm10.671 5.652H35.42v-1.476h2.736v-1.356H35.42V9.348h3.108V7.932h-4.74V15h4.74v-1.416z"/>
</svg>
