<svg xmlns="http://www.w3.org/2000/svg" width="13" height="10" fill="none" viewBox="0 0 13 10">
    <path fill="#E4002B" d="M12.728 2.047c-.15-.553-.59-.99-1.149-1.137C10.565.641 6.5.641 6.5.641s-4.065 0-5.079.27c-.56.147-1 .583-1.15 1.136C0 3.049 0 5.14 0 5.14s0 2.092.272 3.095c.149.553.59.989 1.149 1.137C2.435 9.64 6.5 9.64 6.5 9.64s4.065 0 5.079-.268c.56-.148 1-.584 1.15-1.137C13 7.233 13 5.141 13 5.141s0-2.092-.272-3.094"/>
    <path fill="#fff" d="M5.088 7.641l4.071-2.5-4.07-2.5v5z"/>
</svg>
